<mxfile host="app.diagrams.net" agent="Mozilla/5.0 (Windows NT 10.0; Win64; x64) AppleWebKit/537.36 (KHTML, like Gecko) Chrome/137.0.0.0 Safari/537.36" version="27.1.6">
  <diagram name="Page-1" id="eznCN2K3dwVxffLnWwe_">
    <mxGraphModel grid="1" page="1" gridSize="10" guides="1" tooltips="1" connect="1" arrows="1" fold="1" pageScale="1" pageWidth="850" pageHeight="1100" math="0" shadow="0">
      <root>
        <mxCell id="0" />
        <mxCell id="1" parent="0" />
        <mxCell id="BOrVuKHk-l1J-3T6yIqm-1" value="Tratamento" style="swimlane;fontStyle=1;align=center;verticalAlign=top;childLayout=stackLayout;horizontal=1;startSize=26;horizontalStack=0;resizeParent=1;resizeParentMax=0;resizeLast=0;collapsible=1;marginBottom=0;whiteSpace=wrap;html=1;" vertex="1" parent="1">
          <mxGeometry x="340" y="440" width="290" height="210" as="geometry" />
        </mxCell>
        <mxCell id="BOrVuKHk-l1J-3T6yIqm-2" value="- id: int&lt;div&gt;- cpfDoPaciente: int&lt;/div&gt;&lt;div&gt;- matriculaDoMedicoResponsavel: int&lt;/div&gt;&lt;div&gt;- tratamentoEmAndamento: boolean&lt;/div&gt;&lt;div&gt;- dataDeInicio: Date&lt;/div&gt;&lt;div&gt;- dataDeFinalizacao: Date&lt;/div&gt;" style="text;strokeColor=none;fillColor=none;align=left;verticalAlign=top;spacingLeft=4;spacingRight=4;overflow=hidden;rotatable=0;points=[[0,0.5],[1,0.5]];portConstraint=eastwest;whiteSpace=wrap;html=1;" vertex="1" parent="BOrVuKHk-l1J-3T6yIqm-1">
          <mxGeometry y="26" width="290" height="94" as="geometry" />
        </mxCell>
        <mxCell id="BOrVuKHk-l1J-3T6yIqm-3" value="" style="line;strokeWidth=1;fillColor=none;align=left;verticalAlign=middle;spacingTop=-1;spacingLeft=3;spacingRight=3;rotatable=0;labelPosition=right;points=[];portConstraint=eastwest;strokeColor=inherit;" vertex="1" parent="BOrVuKHk-l1J-3T6yIqm-1">
          <mxGeometry y="120" width="290" height="8" as="geometry" />
        </mxCell>
        <mxCell id="BOrVuKHk-l1J-3T6yIqm-4" value="+ getMatriculaDoMedicoResponsavel(): int&lt;div&gt;# setCpfDoPaciente(nome: String): boolean&lt;/div&gt;&lt;div&gt;# iniciarTratamento(data: Date): boolean&lt;/div&gt;&lt;div&gt;# finalizarTratamento(data: Date): boolean&lt;/div&gt;&lt;div&gt;# trocarMedicoResponsavel(matricula: int): boolean&lt;/div&gt;" style="text;strokeColor=none;fillColor=none;align=left;verticalAlign=top;spacingLeft=4;spacingRight=4;overflow=hidden;rotatable=0;points=[[0,0.5],[1,0.5]];portConstraint=eastwest;whiteSpace=wrap;html=1;" vertex="1" parent="BOrVuKHk-l1J-3T6yIqm-1">
          <mxGeometry y="128" width="290" height="82" as="geometry" />
        </mxCell>
        <mxCell id="BOrVuKHk-l1J-3T6yIqm-5" value="Exame" style="swimlane;fontStyle=1;align=center;verticalAlign=top;childLayout=stackLayout;horizontal=1;startSize=26;horizontalStack=0;resizeParent=1;resizeParentMax=0;resizeLast=0;collapsible=1;marginBottom=0;whiteSpace=wrap;html=1;" vertex="1" parent="1">
          <mxGeometry x="650" y="700" width="320" height="240" as="geometry" />
        </mxCell>
        <mxCell id="BOrVuKHk-l1J-3T6yIqm-6" value="- id: int&lt;div&gt;- cpfDoPaciente: int&lt;/div&gt;&lt;div&gt;- matriculaDoMedicoSolicitante: int&lt;/div&gt;&lt;div&gt;- enfermeirosResponsaveis:&amp;nbsp;&lt;span style=&quot;color: light-dark(rgb(0, 0, 0), rgb(255, 255, 255)); background-color: transparent;&quot;&gt;List&amp;lt;Enfermeiro&amp;gt;&lt;/span&gt;&lt;/div&gt;&lt;div&gt;- todosOsResultadosEntregues: boolean&lt;/div&gt;&lt;div&gt;- resultados: List&amp;lt;Resultado&amp;gt;&lt;/div&gt;&lt;div&gt;- dataDeInicio: Date&lt;/div&gt;&lt;div&gt;- dataDeFinalizacao: Date&lt;/div&gt;" style="text;strokeColor=none;fillColor=none;align=left;verticalAlign=top;spacingLeft=4;spacingRight=4;overflow=hidden;rotatable=0;points=[[0,0.5],[1,0.5]];portConstraint=eastwest;whiteSpace=wrap;html=1;" vertex="1" parent="BOrVuKHk-l1J-3T6yIqm-5">
          <mxGeometry y="26" width="320" height="124" as="geometry" />
        </mxCell>
        <mxCell id="BOrVuKHk-l1J-3T6yIqm-7" value="" style="line;strokeWidth=1;fillColor=none;align=left;verticalAlign=middle;spacingTop=-1;spacingLeft=3;spacingRight=3;rotatable=0;labelPosition=right;points=[];portConstraint=eastwest;strokeColor=inherit;" vertex="1" parent="BOrVuKHk-l1J-3T6yIqm-5">
          <mxGeometry y="150" width="320" height="8" as="geometry" />
        </mxCell>
        <mxCell id="BOrVuKHk-l1J-3T6yIqm-8" value="+ getMatriculaDoMedicoSolicitante(): int&lt;div&gt;# setMatriculaDoMedicoSolicitante(matricula: int): boolean&lt;/div&gt;&lt;div&gt;# iniciarTratamento(data: Date): boolean&lt;/div&gt;&lt;div&gt;# finalizarTratamento(data: Date): boolean&lt;/div&gt;&lt;div&gt;# adicionarResultado(resultado: Resultado): boolean&lt;/div&gt;" style="text;strokeColor=none;fillColor=none;align=left;verticalAlign=top;spacingLeft=4;spacingRight=4;overflow=hidden;rotatable=0;points=[[0,0.5],[1,0.5]];portConstraint=eastwest;whiteSpace=wrap;html=1;" vertex="1" parent="BOrVuKHk-l1J-3T6yIqm-5">
          <mxGeometry y="158" width="320" height="82" as="geometry" />
        </mxCell>
        <mxCell id="BOrVuKHk-l1J-3T6yIqm-9" value="Enfermeiro" style="swimlane;fontStyle=1;align=center;verticalAlign=top;childLayout=stackLayout;horizontal=1;startSize=26;horizontalStack=0;resizeParent=1;resizeParentMax=0;resizeLast=0;collapsible=1;marginBottom=0;whiteSpace=wrap;html=1;" vertex="1" parent="1">
          <mxGeometry x="1120" y="580" width="310" height="250" as="geometry" />
        </mxCell>
        <mxCell id="BOrVuKHk-l1J-3T6yIqm-10" value="- matricula: int&lt;div&gt;- cpf: int&lt;br&gt;&lt;div&gt;- nome: String&lt;/div&gt;&lt;div&gt;- ativo: boolean&lt;/div&gt;&lt;div&gt;- email: String&lt;/div&gt;&lt;div&gt;- numeroDeEmergencia: String&lt;/div&gt;&lt;div&gt;- setor: String&lt;/div&gt;&lt;div&gt;&lt;span style=&quot;background-color: transparent; color: light-dark(rgb(0, 0, 0), rgb(255, 255, 255));&quot;&gt;- pix: String&lt;/span&gt;&lt;/div&gt;&lt;/div&gt;&lt;div&gt;&lt;span style=&quot;background-color: transparent; color: light-dark(rgb(0, 0, 0), rgb(255, 255, 255));&quot;&gt;- examesAFazer: List&amp;lt;Exame&amp;gt;&lt;/span&gt;&lt;/div&gt;" style="text;strokeColor=none;fillColor=none;align=left;verticalAlign=top;spacingLeft=4;spacingRight=4;overflow=hidden;rotatable=0;points=[[0,0.5],[1,0.5]];portConstraint=eastwest;whiteSpace=wrap;html=1;" vertex="1" parent="BOrVuKHk-l1J-3T6yIqm-9">
          <mxGeometry y="26" width="310" height="134" as="geometry" />
        </mxCell>
        <mxCell id="BOrVuKHk-l1J-3T6yIqm-11" value="" style="line;strokeWidth=1;fillColor=none;align=left;verticalAlign=middle;spacingTop=-1;spacingLeft=3;spacingRight=3;rotatable=0;labelPosition=right;points=[];portConstraint=eastwest;strokeColor=inherit;" vertex="1" parent="BOrVuKHk-l1J-3T6yIqm-9">
          <mxGeometry y="160" width="310" height="8" as="geometry" />
        </mxCell>
        <mxCell id="BOrVuKHk-l1J-3T6yIqm-12" value="+ getNome(): String&lt;div&gt;# setNome(nome: String): boolean&lt;/div&gt;&lt;div&gt;# adicionarExameAFazer(exame: Exame): boolean&lt;/div&gt;&lt;div&gt;# concluirExame(exame: Exame): boolean&lt;/div&gt;&lt;div&gt;# depositarSalario(): boolean&lt;/div&gt;" style="text;strokeColor=none;fillColor=none;align=left;verticalAlign=top;spacingLeft=4;spacingRight=4;overflow=hidden;rotatable=0;points=[[0,0.5],[1,0.5]];portConstraint=eastwest;whiteSpace=wrap;html=1;" vertex="1" parent="BOrVuKHk-l1J-3T6yIqm-9">
          <mxGeometry y="168" width="310" height="82" as="geometry" />
        </mxCell>
        <mxCell id="BOrVuKHk-l1J-3T6yIqm-13" value="Paciente" style="swimlane;fontStyle=1;align=center;verticalAlign=top;childLayout=stackLayout;horizontal=1;startSize=26;horizontalStack=0;resizeParent=1;resizeParentMax=0;resizeLast=0;collapsible=1;marginBottom=0;whiteSpace=wrap;html=1;" vertex="1" parent="1">
          <mxGeometry x="650" y="180" width="310" height="220" as="geometry" />
        </mxCell>
        <mxCell id="BOrVuKHk-l1J-3T6yIqm-14" value="- cpf: int&lt;div&gt;- nome: String&lt;/div&gt;&lt;div&gt;- email: String&lt;/div&gt;&lt;div&gt;- numeroDeEmergencia: String&lt;/div&gt;&lt;div&gt;- historicoDeExames:&amp;nbsp;&lt;span style=&quot;background-color: transparent; color: light-dark(rgb(0, 0, 0), rgb(255, 255, 255));&quot;&gt;List&amp;lt;Exame&amp;gt;&lt;/span&gt;&lt;/div&gt;&lt;div&gt;- historicoDeTratamentos: List&amp;lt;Tratamento&amp;gt;&lt;/div&gt;&lt;div&gt;- pix: String&lt;/div&gt;" style="text;strokeColor=none;fillColor=none;align=left;verticalAlign=top;spacingLeft=4;spacingRight=4;overflow=hidden;rotatable=0;points=[[0,0.5],[1,0.5]];portConstraint=eastwest;whiteSpace=wrap;html=1;" vertex="1" parent="BOrVuKHk-l1J-3T6yIqm-13">
          <mxGeometry y="26" width="310" height="104" as="geometry" />
        </mxCell>
        <mxCell id="BOrVuKHk-l1J-3T6yIqm-15" value="" style="line;strokeWidth=1;fillColor=none;align=left;verticalAlign=middle;spacingTop=-1;spacingLeft=3;spacingRight=3;rotatable=0;labelPosition=right;points=[];portConstraint=eastwest;strokeColor=inherit;" vertex="1" parent="BOrVuKHk-l1J-3T6yIqm-13">
          <mxGeometry y="130" width="310" height="8" as="geometry" />
        </mxCell>
        <mxCell id="BOrVuKHk-l1J-3T6yIqm-16" value="+ getNome(): String&lt;div&gt;# setNome(nome: String): boolean&lt;/div&gt;&lt;div&gt;# adicionarExameAoHistorico(exame: Exame): boolean&lt;/div&gt;&lt;div&gt;# removerExameDoHistorico(exame: Exame): boolean&lt;/div&gt;&lt;div&gt;# enviarReembolso(): boolean&lt;/div&gt;" style="text;strokeColor=none;fillColor=none;align=left;verticalAlign=top;spacingLeft=4;spacingRight=4;overflow=hidden;rotatable=0;points=[[0,0.5],[1,0.5]];portConstraint=eastwest;whiteSpace=wrap;html=1;" vertex="1" parent="BOrVuKHk-l1J-3T6yIqm-13">
          <mxGeometry y="138" width="310" height="82" as="geometry" />
        </mxCell>
        <mxCell id="BOrVuKHk-l1J-3T6yIqm-17" value="MÃ©dico" style="swimlane;fontStyle=1;align=center;verticalAlign=top;childLayout=stackLayout;horizontal=1;startSize=26;horizontalStack=0;resizeParent=1;resizeParentMax=0;resizeLast=0;collapsible=1;marginBottom=0;whiteSpace=wrap;html=1;" vertex="1" parent="1">
          <mxGeometry x="1040" y="180" width="430" height="250" as="geometry" />
        </mxCell>
        <mxCell id="BOrVuKHk-l1J-3T6yIqm-18" value="- matricula: int&lt;div&gt;- cpf: int&lt;br&gt;&lt;div&gt;- nome: String&lt;/div&gt;&lt;div&gt;- ativo: boolean&lt;/div&gt;&lt;div&gt;- email: String&lt;/div&gt;&lt;div&gt;- numeroDeEmergencia: String&lt;/div&gt;&lt;div&gt;- especialidade: String&lt;/div&gt;&lt;div&gt;- tratamentosEmResponsabilidade: List&amp;lt;Tratamento&amp;gt;&lt;/div&gt;&lt;div&gt;- pix: String&lt;/div&gt;&lt;/div&gt;" style="text;strokeColor=none;fillColor=none;align=left;verticalAlign=top;spacingLeft=4;spacingRight=4;overflow=hidden;rotatable=0;points=[[0,0.5],[1,0.5]];portConstraint=eastwest;whiteSpace=wrap;html=1;" vertex="1" parent="BOrVuKHk-l1J-3T6yIqm-17">
          <mxGeometry y="26" width="430" height="134" as="geometry" />
        </mxCell>
        <mxCell id="BOrVuKHk-l1J-3T6yIqm-19" value="" style="line;strokeWidth=1;fillColor=none;align=left;verticalAlign=middle;spacingTop=-1;spacingLeft=3;spacingRight=3;rotatable=0;labelPosition=right;points=[];portConstraint=eastwest;strokeColor=inherit;" vertex="1" parent="BOrVuKHk-l1J-3T6yIqm-17">
          <mxGeometry y="160" width="430" height="8" as="geometry" />
        </mxCell>
        <mxCell id="BOrVuKHk-l1J-3T6yIqm-20" value="+ getNome(): String&lt;div&gt;# setNome(nome: String): boolean&lt;/div&gt;&lt;div&gt;# adicionarTratamentoEmResponsabilidade(tratamento: Tratamento): boolean&lt;/div&gt;&lt;div&gt;# desvincularDaInstituicao(): boolean&lt;/div&gt;&lt;div&gt;# depositarSalario(): boolean&lt;/div&gt;" style="text;strokeColor=none;fillColor=none;align=left;verticalAlign=top;spacingLeft=4;spacingRight=4;overflow=hidden;rotatable=0;points=[[0,0.5],[1,0.5]];portConstraint=eastwest;whiteSpace=wrap;html=1;" vertex="1" parent="BOrVuKHk-l1J-3T6yIqm-17">
          <mxGeometry y="168" width="430" height="82" as="geometry" />
        </mxCell>
        <mxCell id="BOrVuKHk-l1J-3T6yIqm-21" value="" style="endArrow=none;html=1;rounded=0;entryX=-0.005;entryY=0.611;entryDx=0;entryDy=0;entryPerimeter=0;" edge="1" parent="1" target="BOrVuKHk-l1J-3T6yIqm-14">
          <mxGeometry width="50" height="50" relative="1" as="geometry">
            <mxPoint x="450" y="440" as="sourcePoint" />
            <mxPoint x="450" y="280" as="targetPoint" />
            <Array as="points">
              <mxPoint x="450" y="270" />
            </Array>
          </mxGeometry>
        </mxCell>
        <mxCell id="BOrVuKHk-l1J-3T6yIqm-22" value="Possui" style="text;html=1;align=center;verticalAlign=middle;whiteSpace=wrap;rounded=0;" vertex="1" parent="1">
          <mxGeometry x="420" y="230" width="60" height="30" as="geometry" />
        </mxCell>
        <mxCell id="BOrVuKHk-l1J-3T6yIqm-23" value="N:1" style="text;html=1;align=center;verticalAlign=middle;whiteSpace=wrap;rounded=0;" vertex="1" parent="1">
          <mxGeometry x="450" y="410" width="60" height="30" as="geometry" />
        </mxCell>
        <mxCell id="BOrVuKHk-l1J-3T6yIqm-24" value="1" style="text;html=1;align=center;verticalAlign=middle;whiteSpace=wrap;rounded=0;" vertex="1" parent="1">
          <mxGeometry x="590" y="270" width="60" height="30" as="geometry" />
        </mxCell>
        <mxCell id="BOrVuKHk-l1J-3T6yIqm-25" value="" style="endArrow=open;html=1;endSize=12;startArrow=diamondThin;startSize=14;startFill=1;edgeStyle=orthogonalEdgeStyle;align=left;verticalAlign=bottom;rounded=0;exitX=0.515;exitY=1.008;exitDx=0;exitDy=0;exitPerimeter=0;" edge="1" parent="1" source="BOrVuKHk-l1J-3T6yIqm-16" target="BOrVuKHk-l1J-3T6yIqm-5">
          <mxGeometry x="-1" y="3" relative="1" as="geometry">
            <mxPoint x="820" y="450" as="sourcePoint" />
            <mxPoint x="800" y="550" as="targetPoint" />
            <Array as="points" />
          </mxGeometry>
        </mxCell>
        <mxCell id="BOrVuKHk-l1J-3T6yIqm-38" value="ExameLaboratorial" style="swimlane;fontStyle=1;align=center;verticalAlign=top;childLayout=stackLayout;horizontal=1;startSize=26;horizontalStack=0;resizeParent=1;resizeParentMax=0;resizeLast=0;collapsible=1;marginBottom=0;whiteSpace=wrap;html=1;" vertex="1" parent="1">
          <mxGeometry x="400" y="1100" width="410" height="240" as="geometry" />
        </mxCell>
        <mxCell id="BOrVuKHk-l1J-3T6yIqm-39" value="- id: int&lt;div&gt;- cpfDoPaciente: int&lt;/div&gt;&lt;div&gt;- matriculaDoMedicoSolicitante: int&lt;/div&gt;&lt;div&gt;- enfermeirosResponsaveis:&amp;nbsp;&lt;span style=&quot;color: light-dark(rgb(0, 0, 0), rgb(255, 255, 255)); background-color: transparent;&quot;&gt;List&amp;lt;Enfermeiro&amp;gt;&lt;/span&gt;&lt;/div&gt;&lt;div&gt;- todosOsResultadosEntregues: boolean&lt;/div&gt;&lt;div&gt;- planilhaDeResultados: PlanilhaDeResultados&lt;/div&gt;&lt;div&gt;- dataDeInicio: Date&lt;/div&gt;&lt;div&gt;- dataDeFinalizacao: Date&lt;/div&gt;" style="text;strokeColor=none;fillColor=none;align=left;verticalAlign=top;spacingLeft=4;spacingRight=4;overflow=hidden;rotatable=0;points=[[0,0.5],[1,0.5]];portConstraint=eastwest;whiteSpace=wrap;html=1;" vertex="1" parent="BOrVuKHk-l1J-3T6yIqm-38">
          <mxGeometry y="26" width="410" height="124" as="geometry" />
        </mxCell>
        <mxCell id="BOrVuKHk-l1J-3T6yIqm-40" value="" style="line;strokeWidth=1;fillColor=none;align=left;verticalAlign=middle;spacingTop=-1;spacingLeft=3;spacingRight=3;rotatable=0;labelPosition=right;points=[];portConstraint=eastwest;strokeColor=inherit;" vertex="1" parent="BOrVuKHk-l1J-3T6yIqm-38">
          <mxGeometry y="150" width="410" height="8" as="geometry" />
        </mxCell>
        <mxCell id="BOrVuKHk-l1J-3T6yIqm-41" value="+ getMatriculaDoMedicoSolicitante(): int&lt;div&gt;# setMatriculaDoMedicoSolicitante(matricula: int): boolean&lt;/div&gt;&lt;div&gt;# iniciarTratamento(data: Date): boolean&lt;/div&gt;&lt;div&gt;# finalizarTratamento(data: Date): boolean&lt;/div&gt;&lt;div&gt;# atulizarPlanilhaDeResultados(planilha: PlanilhaDeResultados): boolean&lt;/div&gt;" style="text;strokeColor=none;fillColor=none;align=left;verticalAlign=top;spacingLeft=4;spacingRight=4;overflow=hidden;rotatable=0;points=[[0,0.5],[1,0.5]];portConstraint=eastwest;whiteSpace=wrap;html=1;" vertex="1" parent="BOrVuKHk-l1J-3T6yIqm-38">
          <mxGeometry y="158" width="410" height="82" as="geometry" />
        </mxCell>
        <mxCell id="BOrVuKHk-l1J-3T6yIqm-42" value="Extends" style="endArrow=block;endSize=16;endFill=0;html=1;rounded=0;exitX=0.5;exitY=0;exitDx=0;exitDy=0;entryX=0.246;entryY=1.009;entryDx=0;entryDy=0;entryPerimeter=0;" edge="1" parent="1" source="BOrVuKHk-l1J-3T6yIqm-38" target="BOrVuKHk-l1J-3T6yIqm-8">
          <mxGeometry width="160" relative="1" as="geometry">
            <mxPoint x="339" y="1285" as="sourcePoint" />
            <mxPoint x="400" y="1157" as="targetPoint" />
            <Array as="points">
              <mxPoint x="729" y="1000" />
            </Array>
          </mxGeometry>
        </mxCell>
        <mxCell id="BOrVuKHk-l1J-3T6yIqm-43" value="ExameImagem" style="swimlane;fontStyle=1;align=center;verticalAlign=top;childLayout=stackLayout;horizontal=1;startSize=26;horizontalStack=0;resizeParent=1;resizeParentMax=0;resizeLast=0;collapsible=1;marginBottom=0;whiteSpace=wrap;html=1;" vertex="1" parent="1">
          <mxGeometry x="890" y="1100" width="410" height="240" as="geometry" />
        </mxCell>
        <mxCell id="BOrVuKHk-l1J-3T6yIqm-44" value="- id: int&lt;div&gt;- cpfDoPaciente: int&lt;/div&gt;&lt;div&gt;- matriculaDoMedicoSolicitante: int&lt;/div&gt;&lt;div&gt;- enfermeirosResponsaveis:&amp;nbsp;&lt;span style=&quot;color: light-dark(rgb(0, 0, 0), rgb(255, 255, 255)); background-color: transparent;&quot;&gt;List&amp;lt;Enfermeiro&amp;gt;&lt;/span&gt;&lt;/div&gt;&lt;div&gt;- todosOsResultadosEntregues: boolean&lt;/div&gt;&lt;div&gt;- pdfsResultados: List &amp;lt;ResultadoPDF&amp;gt;&lt;/div&gt;&lt;div&gt;- dataDeInicio: Date&lt;/div&gt;&lt;div&gt;- dataDeFinalizacao: Date&lt;/div&gt;" style="text;strokeColor=none;fillColor=none;align=left;verticalAlign=top;spacingLeft=4;spacingRight=4;overflow=hidden;rotatable=0;points=[[0,0.5],[1,0.5]];portConstraint=eastwest;whiteSpace=wrap;html=1;" vertex="1" parent="BOrVuKHk-l1J-3T6yIqm-43">
          <mxGeometry y="26" width="410" height="124" as="geometry" />
        </mxCell>
        <mxCell id="BOrVuKHk-l1J-3T6yIqm-45" value="" style="line;strokeWidth=1;fillColor=none;align=left;verticalAlign=middle;spacingTop=-1;spacingLeft=3;spacingRight=3;rotatable=0;labelPosition=right;points=[];portConstraint=eastwest;strokeColor=inherit;" vertex="1" parent="BOrVuKHk-l1J-3T6yIqm-43">
          <mxGeometry y="150" width="410" height="8" as="geometry" />
        </mxCell>
        <mxCell id="BOrVuKHk-l1J-3T6yIqm-46" value="+ getMatriculaDoMedicoSolicitante(): int&lt;div&gt;# setMatriculaDoMedicoSolicitante(matricula: int): boolean&lt;/div&gt;&lt;div&gt;# iniciarTratamento(data: Date): boolean&lt;/div&gt;&lt;div&gt;# finalizarTratamento(data: Date): boolean&lt;/div&gt;&lt;div&gt;# adicionarPDFResultado(pdf: ResultadoPDF): boolean&lt;/div&gt;" style="text;strokeColor=none;fillColor=none;align=left;verticalAlign=top;spacingLeft=4;spacingRight=4;overflow=hidden;rotatable=0;points=[[0,0.5],[1,0.5]];portConstraint=eastwest;whiteSpace=wrap;html=1;" vertex="1" parent="BOrVuKHk-l1J-3T6yIqm-43">
          <mxGeometry y="158" width="410" height="82" as="geometry" />
        </mxCell>
        <mxCell id="BOrVuKHk-l1J-3T6yIqm-47" value="Extends" style="endArrow=block;endSize=16;endFill=0;html=1;rounded=0;exitX=0.5;exitY=0;exitDx=0;exitDy=0;entryX=0.797;entryY=0.963;entryDx=0;entryDy=0;entryPerimeter=0;" edge="1" parent="1" source="BOrVuKHk-l1J-3T6yIqm-43" target="BOrVuKHk-l1J-3T6yIqm-8">
          <mxGeometry width="160" relative="1" as="geometry">
            <mxPoint x="699" y="1275" as="sourcePoint" />
            <mxPoint x="880" y="920" as="targetPoint" />
            <Array as="points">
              <mxPoint x="905" y="1000" />
            </Array>
          </mxGeometry>
        </mxCell>
        <mxCell id="BOrVuKHk-l1J-3T6yIqm-49" value="1" style="text;html=1;align=center;verticalAlign=middle;whiteSpace=wrap;rounded=0;" vertex="1" parent="1">
          <mxGeometry x="750" y="400" width="60" height="30" as="geometry" />
        </mxCell>
        <mxCell id="BOrVuKHk-l1J-3T6yIqm-50" value="N:1" style="text;html=1;align=center;verticalAlign=middle;whiteSpace=wrap;rounded=0;" vertex="1" parent="1">
          <mxGeometry x="740" y="670" width="60" height="30" as="geometry" />
        </mxCell>
        <mxCell id="BOrVuKHk-l1J-3T6yIqm-52" value="1:N" style="text;html=1;align=center;verticalAlign=middle;whiteSpace=wrap;rounded=0;" vertex="1" parent="1">
          <mxGeometry x="970" y="790" width="60" height="30" as="geometry" />
        </mxCell>
        <mxCell id="BOrVuKHk-l1J-3T6yIqm-53" value="N:1" style="text;html=1;align=center;verticalAlign=middle;whiteSpace=wrap;rounded=0;" vertex="1" parent="1">
          <mxGeometry x="1060" y="710" width="60" height="30" as="geometry" />
        </mxCell>
        <mxCell id="BOrVuKHk-l1J-3T6yIqm-54" value="Tem" style="endArrow=open;endSize=12;dashed=1;html=1;rounded=0;exitX=-0.01;exitY=0.112;exitDx=0;exitDy=0;exitPerimeter=0;entryX=0.75;entryY=0;entryDx=0;entryDy=0;" edge="1" parent="1" source="BOrVuKHk-l1J-3T6yIqm-14">
          <mxGeometry width="160" relative="1" as="geometry">
            <mxPoint x="642" y="175" as="sourcePoint" />
            <mxPoint x="360" y="440" as="targetPoint" />
            <Array as="points">
              <mxPoint x="642" y="215" />
              <mxPoint x="360" y="215" />
            </Array>
          </mxGeometry>
        </mxCell>
        <mxCell id="BOrVuKHk-l1J-3T6yIqm-56" value="Realiza" style="endArrow=open;endSize=12;dashed=1;html=1;rounded=0;entryX=-0.01;entryY=1.004;entryDx=0;entryDy=0;entryPerimeter=0;exitX=0.466;exitY=0.001;exitDx=0;exitDy=0;exitPerimeter=0;" edge="1" parent="1" source="BOrVuKHk-l1J-3T6yIqm-17" target="BOrVuKHk-l1J-3T6yIqm-2">
          <mxGeometry width="160" relative="1" as="geometry">
            <mxPoint x="1280" y="120" as="sourcePoint" />
            <mxPoint x="280" y="560" as="targetPoint" />
            <Array as="points">
              <mxPoint x="1240" y="120" />
              <mxPoint x="280" y="120" />
              <mxPoint x="280" y="560" />
            </Array>
          </mxGeometry>
        </mxCell>
        <mxCell id="hAhGOX6UFaN4Bc22EIiT-2" value="1" style="endArrow=open;html=1;endSize=12;startArrow=diamondThin;startSize=14;startFill=0;edgeStyle=orthogonalEdgeStyle;align=left;verticalAlign=bottom;rounded=0;exitX=0;exitY=1.034;exitDx=0;exitDy=0;exitPerimeter=0;entryX=1;entryY=0.5;entryDx=0;entryDy=0;" edge="1" parent="1" source="BOrVuKHk-l1J-3T6yIqm-10" target="BOrVuKHk-l1J-3T6yIqm-6">
          <mxGeometry x="-1" y="3" relative="1" as="geometry">
            <mxPoint x="880" y="710" as="sourcePoint" />
            <mxPoint x="1040" y="710" as="targetPoint" />
          </mxGeometry>
        </mxCell>
      </root>
    </mxGraphModel>
  </diagram>
</mxfile>
